<svg width="200" height="200" viewBox="0 0 200 200" fill="none" xmlns="http://www.w3.org/2000/svg">
  <path d="M85 50C87 42 93 32 108 32C125 32 135 41 135 54C135 67 128 75 118 85L95 108C83 120 72 130 72 145C72 165 86 180 108 180C130 180 145 168 154 155C156 152 160 150 163 152C166 154 168 158 166 161C156 176 138 190 108 190C78 190 58 172 58 142C58 120 70 106 85 91L110 66C120 56 128 51 128 45C128 39 122 38 110 38C98 38 91 44 87 53C85 57 81 59 77 57C73 55 71 51 73 47C77 39 85 50 85 50Z" fill="#FF3B30"/>
  <circle cx="160" cy="170" r="18" fill="#FF3B30"/>
</svg>
